<svg version="1.1" xmlns="http://www.w3.org/2000/svg" xmlns:xlink="http://www.w3.org/1999/xlink" width="535.29276" height="559.14452" viewBox="11,11,535.29276,559.14452"><g transform="translate(38.64638,110.57226)"><g data-paper-data="{&quot;isPaintingLayer&quot;:true}" fill-rule="nonzero" stroke-linejoin="miter" stroke-miterlimit="10" stroke-dasharray="" stroke-dashoffset="0" style="mix-blend-mode: normal"><path d="M349.86626,320.88818l0.10975,0.05487c7.04212,3.87774 11.83442,11.39543 11.83442,20.0106c0,3.98749 -1.02431,7.75548 -2.78027,10.90157l-0.53045,1.06089c-35.00941,63.58031 -102.66866,106.65615 -180.36979,106.65615c-113.64339,0 -205.77631,-92.13291 -205.77631,-205.77631c0,-67.09222 32.1011,-126.68504 82.29223,-164.62104l-0.05487,0.03658c3.82287,-2.90831 8.61517,-4.62768 13.79159,-4.62768c12.62095,0 22.86403,10.24309 22.86403,22.86403c0,7.44453 -3.56679,14.06595 -9.12732,18.27294l-0.40241,0.29266c-38.64936,29.21109 -63.63518,75.57935 -63.63518,127.76422c0,88.4015 71.66503,160.06653 160.06653,160.06653c60.45251,0 113.07637,-33.50953 140.7327,-83.79211l0.05487,-0.10975c3.85945,-7.06041 11.37714,-11.85272 19.99231,-11.85272c4.00578,0 7.77377,1.02431 10.91986,2.78027zM506.96961,339.69156l-0.03658,-0.16462c0.45728,1.82912 0.71336,3.73141 0.71336,5.70686c0,10.66379 -7.2982,19.62649 -17.32179,22.18726l-73.16491,18.29123l0.16462,-0.03658c-1.81083,0.45728 -3.73141,0.71336 -5.68857,0.71336c-9.98701,0 -18.47414,-6.40193 -21.65681,-15.47438l-50.90449,-149.14667h-165.22465c-11.39543,0 -20.852,-8.3408 -22.58967,-19.3887l-28.05874,-182.45499l-0.4207,-0.09146c-26.50399,-6.4568 -46.18535,-30.34515 -46.18535,-58.84288c0,-33.45465 27.1076,-60.56225 60.56225,-60.56225c33.45465,0 60.56225,27.12589 60.56225,60.56225c0,21.91289 -11.65151,41.10039 -29.33913,51.89221l11.02961,71.70161h85.91389c12.62095,0 22.86403,10.24309 22.86403,22.86403c0,12.62095 -10.24309,22.86403 -22.86403,22.86403h-78.87177l7.04212,45.72807h161.96882c9.98701,0 18.47414,6.40193 21.65681,15.47438l49.4046,144.72019l52.77019,-13.18797l-0.16462,0.03658c1.82912,-0.47557 3.7497,-0.73165 5.72515,-0.73165c10.66379,0 19.6082,7.2982 22.15068,17.34008z" fill="#000000" stroke="#ffffff" stroke-width="0" stroke-linecap="butt"/><path d="M41.42379,180c0,-109.67061 88.9056,-198.57621 198.57621,-198.57621c109.67061,0 198.57621,88.9056 198.57621,198.57621c0,109.67061 -88.9056,198.57621 -198.57621,198.57621c-109.67061,0 -198.57621,-88.9056 -198.57621,-198.57621z" fill="none" stroke="#ff0000" stroke-width="36.5" stroke-linecap="butt"/><path d="M345.31745,285.31745l-210.6349,-210.6349" fill="none" stroke="#ff0000" stroke-width="36.5" stroke-linecap="round"/></g></g></svg>