<svg version="1.1" xmlns="http://www.w3.org/2000/svg" xmlns:xlink="http://www.w3.org/1999/xlink" width="535.29276" height="727.74442" viewBox="0,0,535.29276,727.74442"><g transform="translate(27.64637,193.67537)"><g data-paper-data="{&quot;isPaintingLayer&quot;:true}" fill-rule="nonzero" stroke="#FF0000" stroke-linejoin="miter" stroke-miterlimit="10" stroke-dasharray="" stroke-dashoffset="0" style="mix-blend-mode: normal"><path d="M349.86626,320.88818l0.10975,0.05488c7.04212,3.87774 11.83442,11.39544 11.83442,20.0106c0,3.98749 -1.0243,7.75548 -2.78026,10.90157l-0.53045,1.06089c-35.00941,63.58031 -102.66865,106.65615 -180.36979,106.65615c-113.64339,0 -205.7763,-92.13291 -205.7763,-205.77631c0,-67.09222 32.10111,-126.68504 82.29223,-164.62104l-0.05488,0.03659c3.82287,-2.9083 8.61517,-4.62768 13.79158,-4.62768c12.62095,0 22.86404,10.24309 22.86404,22.86404c0,7.44453 -3.56678,14.06596 -9.12732,18.27294l-0.40241,0.29266c-38.64937,29.21109 -63.63518,75.57935 -63.63518,127.76422c0,88.4015 71.66503,160.06653 160.06653,160.06653c60.45251,0 113.07637,-33.50953 140.7327,-83.79212l0.05487,-0.10974c3.85945,-7.06041 11.37714,-11.85271 19.99231,-11.85271c4.00578,0 7.77378,1.0243 10.91987,2.78026zM506.96961,339.69156l-0.03658,-0.16463c0.45728,1.82912 0.71336,3.73141 0.71336,5.70686c0,10.66379 -7.2982,19.62649 -17.32179,22.18726l-73.16491,18.29122l0.16462,-0.03658c-1.81083,0.45728 -3.73141,0.71335 -5.68857,0.71335c-9.98701,0 -18.47414,-6.40192 -21.65682,-15.47437l-50.90448,-149.14667h-165.22466c-11.39543,0 -20.852,-8.3408 -22.58966,-19.3887l-28.05874,-182.45499l-0.4207,-0.09145c-26.50399,-6.4568 -46.18535,-30.34515 -46.18535,-58.84288c0,-33.45465 27.1076,-60.56225 60.56226,-60.56225c33.45466,0 60.56225,27.12588 60.56225,60.56225c0,21.91289 -11.65152,41.10039 -29.33913,51.89222l11.02961,71.70161h85.9139c12.62095,0 22.86404,10.24309 22.86404,22.86404c0,12.62095 -10.24309,22.86403 -22.86403,22.86403h-78.87177l7.04212,45.72807h161.96882c9.98701,0 18.47414,6.40193 21.65681,15.47438l49.40461,144.72019l52.77019,-13.18797l-0.16462,0.03659c1.82912,-0.47557 3.74969,-0.73165 5.72515,-0.73165c10.66379,0 19.6082,7.2982 22.15068,17.34008z" fill="#000000" stroke-width="0" stroke-linecap="butt"/><path d="M26.04304,36.4235c1.93298,-134.62474 99.19085,-205.96263 221.20972,-210.09888c122.01889,-4.13622 206.70419,81.51019 206.70419,195.59331c0,114.08314 -136.06232,129.48775 -206.70419,233.90211c-15.5575,22.99524 -9.21154,105.64003 -9.21154,105.64003" fill="none" stroke-width="40" stroke-linecap="round"/><path d="M195.90311,487.90896c0,-25.35545 20.55466,-45.91009 45.91009,-45.91009c25.35543,0 45.91009,20.55463 45.91009,45.91009c0,25.35545 -20.55466,45.91009 -45.91009,45.91009c-25.35543,0 -45.91009,-20.55463 -45.91009,-45.91009z" fill="#FF0000" stroke-width="0.5" stroke-linecap="butt"/></g></g></svg>